<?xml version="1.0" encoding="UTF-8"?>
<svg width="102px" height="102px" viewBox="0 0 102 102" version="1.1" xmlns="http://www.w3.org/2000/svg" xmlns:xlink="http://www.w3.org/1999/xlink">
    <!-- Generator: Sketch 46.2 (44496) - http://www.bohemiancoding.com/sketch -->
    <title>Spaceship</title>
    <desc>Created with Sketch.</desc>
    <defs></defs>
    <g id="Page-1" stroke="none" stroke-width="1" fill="none" fill-rule="evenodd">
        <g id="Spaceship" transform="translate(1.000000, 1.000000)" fill-rule="nonzero">
            <path d="M23.5364876,71.9780221 L37.1692061,71.9780221 L37.3696873,73.7030413 C37.4365143,74.2780477 37.9711307,74.7252744 38.5725742,74.7252744 L41.8470997,74.7252744 L40.844694,77.1530797 C40.7110398,77.4725273 40.7778669,77.7919756 40.978348,78.0475337 C41.1788292,78.3030924 41.5129645,78.494761 41.8470997,78.494761 L58.2197273,78.494761 C58.5538628,78.494761 58.8879977,78.3030924 59.0884791,78.0475337 C59.2889605,77.7919756 59.2889605,77.4086378 59.2221331,77.1530797 L58.2197273,74.7252744 L61.4942529,74.7252744 C62.0956965,74.7252744 62.6303128,74.2780477 62.6971395,73.7030413 L62.8976209,71.9780221 L76.4635122,71.9780221 C77.8668802,71.9780221 78.9361134,70.8918988 78.9361134,69.614107 L78.9361134,66.9307436 C78.9361134,66.2918477 78.6688052,65.7168413 78.267843,65.3335035 L64.7687785,51.5972399 L64.9692593,49.7444416 C65.5038762,44.1221569 64.1005081,38.4359826 60.8259826,33.6442627 L53.3413526,22.7191413 C52.606255,21.6330181 51.336541,20.9302326 49.933173,20.9302326 C49.933173,20.9302326 49.933173,20.9302326 49.933173,20.9302326 C48.5966319,20.9302326 47.326918,21.5691285 46.5249933,22.6552517 L39.1740176,33.2609251 C35.8326651,38.0526451 34.3624699,43.8027089 34.8970863,49.4888832 L35.0975675,51.5333503 L21.7321572,65.3335035 C21.3311949,65.7807308 21.0638867,66.3557372 21.0638867,66.9307436 L21.0638867,69.5502174 C21.0638867,70.8918988 22.1999465,71.9780221 23.5364876,71.9780221 Z M42.248062,77.1530797 L43.2504678,74.6613849 L56.6827052,74.6613849 L57.6851109,77.1530797 L42.248062,77.1530797 Z M77.1317831,66.1640686 C77.332264,66.3557372 77.465918,66.6112959 77.465918,66.9307436 L77.465918,69.5502174 C77.465918,70.1891134 76.9313017,70.6363407 76.3298581,70.6363407 L62.8307936,70.6363407 L64.5682971,53.2583695 L77.1317831,66.1640686 Z M40.3100775,33.9637107 L47.6610532,23.4219269 C48.1956696,22.6552517 48.9975942,22.2080245 49.933173,22.2080245 C49.933173,22.2080245 49.933173,22.2080245 49.933173,22.2080245 C50.8687517,22.2080245 51.6706763,22.6552517 52.2052927,23.4219269 L59.6899227,34.4109379 C62.7639669,38.8832098 64.1673349,44.3138257 63.6327186,49.680552 L63.1649291,54.4083823 L61.3605988,71.9780221 L61.3605988,71.9780221 L61.2269448,73.4474826 L57.5514568,73.4474826 L42.3148891,73.4474826 L38.6394012,73.4474826 L36.3004544,49.361104 C35.699011,43.9943777 37.1692061,38.4998722 40.3100775,33.9637107 Z M22.4004277,66.9307436 C22.4004277,66.6751855 22.5340818,66.3557372 22.734563,66.1640686 L35.2980487,53.3222591 L37.035552,70.7002302 L23.5364876,70.7002302 C22.868217,70.7002302 22.4004277,70.1891134 22.4004277,69.614107 L22.4004277,66.9307436 Z" id="Shape" fill="#000000"></path>
            <path d="M49.6658648,49.9361104 C53.4750067,49.9361104 56.549051,46.9971888 56.549051,43.3554817 C56.549051,39.7137746 53.4750067,36.7109634 49.6658648,36.7109634 C45.8567228,36.7109634 42.7826784,39.7137746 42.7826784,43.2915922 C42.7826784,46.8694097 45.8567228,49.9361104 49.6658648,49.9361104 Z M49.6658648,37.9887554 C52.7399091,37.9887554 55.21251,40.3526706 55.21251,43.2915922 C55.21251,46.2305137 52.7399091,48.5944288 49.6658648,48.5944288 C46.5918203,48.5944288 44.1192195,46.2305137 44.1192195,43.2915922 C44.1192195,40.3526706 46.5918203,37.9887554 49.6658648,37.9887554 Z" id="Shape" fill="#000000"></path>
            <path d="M49.6658648,52.1722463 C47.1264368,52.1722463 45.1216252,54.1528239 45.1216252,56.5167391 C45.1216252,58.8806541 47.1932638,60.861232 49.6658648,60.861232 C52.1384656,60.861232 54.2101042,58.8806541 54.2101042,56.5167391 C54.2101042,54.1528239 52.2052927,52.1722463 49.6658648,52.1722463 Z M49.6658648,59.5834401 C47.8615344,59.5834401 46.4581663,58.1778686 46.4581663,56.5167391 C46.4581663,54.8556095 47.9283614,53.4500383 49.6658648,53.4500383 C51.4033681,53.4500383 52.8735632,54.8556095 52.8735632,56.5167391 C52.8735632,58.1778686 51.4701951,59.5834401 49.6658648,59.5834401 Z" id="Shape" fill="#000000"></path>
            <circle id="Oval" stroke="#000000" cx="50" cy="50" r="50"></circle>
        </g>
    </g>
</svg>