<?xml version="1.0" encoding="UTF-8"?>
<svg width="100px" height="100px" viewBox="0 0 100 100" version="1.1" xmlns="http://www.w3.org/2000/svg" xmlns:xlink="http://www.w3.org/1999/xlink">
    <!-- Generator: Sketch 46.2 (44496) - http://www.bohemiancoding.com/sketch -->
    <title>Artboard</title>
    <desc>Created with Sketch.</desc>
    <defs></defs>
    <g id="Page-1" stroke="none" stroke-width="1" fill="none" fill-rule="evenodd">
        <g id="Artboard" fill-rule="nonzero" fill="#000000">
            <g id="Spaceship" transform="translate(13.000000, 0.000000)">
                <path d="M37.2340426,40.1308511 C42.0180851,40.1308511 45.9095745,36.2382979 45.9095745,31.4542553 C45.9095745,26.6702128 42.0180851,22.7787234 37.2340426,22.7787234 C32.45,22.7787234 28.5574468,26.6712766 28.5574468,31.4542553 C28.5574468,36.2393617 32.45,40.1308511 37.2340426,40.1308511 Z M37.2340426,24.8968085 C40.85,24.8968085 43.7914894,27.8393617 43.7914894,31.4553191 C43.7914894,35.0712766 40.85,38.0138298 37.2340426,38.0138298 C33.6180851,38.0138298 30.6755319,35.0712766 30.6755319,31.4553191 C30.6755319,27.8393617 33.6170213,24.8968085 37.2340426,24.8968085 Z M20.8170213,77.9829787 C20.9319149,77.6255319 20.8478723,77.2340426 20.5978723,76.9542553 C20.3861702,76.7159574 20.2138298,76.4670213 20.0851064,76.2106383 C20.0797872,76.2 20.0744681,76.1893617 20.0691489,76.1797872 C19.1489362,74.4851064 18.2617021,72.5659574 17.356383,70.3159574 C15.7138298,66.1744681 14.4095745,61.8117021 13.4797872,57.3457447 C13.4,56.9648936 13.1191489,56.6585106 12.7457447,56.5468085 C12.3734043,56.4361702 11.9702128,56.537234 11.6946809,56.8117021 L2.02234043,66.4819149 C2.01595745,66.4882979 2.00957447,66.4946809 2.00319149,66.5010638 C1.24574468,67.2989362 0.861702128,68.237234 0.861702128,69.293617 L0.861702128,94.3819149 C0.861702128,96.5776596 2.65851064,98.3659574 4.86702128,98.3659574 C7.07553191,98.3659574 8.87234043,96.5776596 8.87234043,94.3819149 L8.87234043,81.2053191 L20.0425532,78.693617 C20.4074468,78.6106383 20.7031915,78.3404255 20.8170213,77.9829787 Z M7.58085106,79.3244681 C7.09680851,79.4329787 6.75425532,79.862766 6.75425532,80.3574468 L6.75425532,94.3819149 C6.75425532,95.4106383 5.90744681,96.2478723 4.86702128,96.2478723 C3.82659574,96.2478723 2.97978723,95.4106383 2.97978723,94.3819149 L2.97978723,69.293617 C2.97978723,68.7882979 3.15425532,68.3680851 3.52978723,67.9702128 L11.8255319,59.6765957 C12.7393617,63.6 13.9340426,67.4340426 15.3904255,71.1021277 C16.2882979,73.3329787 17.1712766,75.2531915 18.0861702,76.962766 L7.58085106,79.3244681 Z M52.1414894,80.4053191 C52.0053191,79.9606383 51.593617,79.656383 51.1287234,79.656383 L23.3531915,79.656383 C22.887234,79.656383 22.4776596,79.9595745 22.3404255,80.4053191 L18,94.587234 C17.6138298,95.8457447 17.7957447,97.1297872 18.5117021,98.2053191 C19.2212766,99.3117021 20.3659574,99.9468085 21.6542553,99.9468085 L52.8276596,99.9468085 C54.0989362,99.9468085 55.243617,99.312766 55.9723404,98.2021277 C56.6734043,97.1191489 56.8489362,95.8351064 56.4670213,94.5882979 L52.1414894,80.4053191 Z M54.1978723,97.0468085 C53.862766,97.5585106 53.3882979,97.8297872 52.8276596,97.8297872 L21.6542553,97.8297872 C21.0765957,97.8297872 20.6180851,97.5702128 20.2925532,97.0574468 C20.2882979,97.05 20.2840426,97.043617 20.2797872,97.037234 C19.9138298,96.4904255 19.8265957,95.8585106 20.0255319,95.206383 L24.137234,81.7723404 L50.3457447,81.7723404 L54.443617,95.206383 C54.6414894,95.8574468 54.5553191,96.4946809 54.1978723,97.0468085 Z M21.6542553,75.6787234 C22.3138298,77.0734043 23.6553191,77.9297872 25.1319149,77.8829787 L49.3510638,77.8829787 C49.3851064,77.8840426 49.4202128,77.8851064 49.4553191,77.8851064 C50.8691489,77.8851064 52.1595745,77.0446809 52.8212766,75.6946809 C53.65,74.0159574 54.4734043,72.0606383 55.3393617,69.7106383 C59.4031915,58.5574468 61.2329787,45.3042553 60.2351064,34.256383 C59.3702128,24.7808511 56.6010638,16.8957447 52.0053191,10.8202128 C49.3712766,7.33297872 46.1170213,4.44787234 42.3382979,2.25 C41.2776596,1.6212766 40.1744681,1.05638298 38.9648936,0.526595745 C38.8319149,0.454255319 38.6946809,0.390425532 38.5542553,0.336170213 C38.5531915,0.336170213 38.5510638,0.335106383 38.55,0.335106383 C38.4946809,0.312765957 38.4393617,0.294680851 38.3819149,0.275531915 C38.3670213,0.271276596 38.3521277,0.264893617 38.3361702,0.259574468 C37.3989362,-0.0372340426 36.3648936,0.0574468085 35.5042553,0.527659574 C34.2989362,1.05638298 33.1946809,1.62021277 32.1351064,2.24680851 C28.3287234,4.46170213 25.0595745,7.36702128 22.4170213,10.8797872 C17.8468085,16.9510638 15.093617,24.8159574 14.2329787,34.2574468 C13.2361702,45.2829787 15.0723404,58.537234 19.143617,69.7085106 C19.9361702,71.9021277 20.7829787,73.9170213 21.6542553,75.6787234 Z M24.9840426,11.0468085 C25.243617,10.7319149 25.5095745,10.4244681 25.7808511,10.1212766 C25.8212766,10.0765957 25.8606383,10.0319149 25.9010638,9.98829787 C26.1712766,9.6893617 26.4468085,9.39574468 26.7287234,9.10851064 C26.7670213,9.07021277 26.8053191,9.03191489 26.843617,8.99361702 C27.1340426,8.7 27.4308511,8.4106383 27.7329787,8.1287234 C27.7489362,8.11489362 27.7648936,8.10106383 27.7797872,8.08617021 C28.0893617,7.8 28.4031915,7.5212766 28.7234043,7.24787234 C28.7404255,7.23404255 28.756383,7.21914894 28.7734043,7.20425532 C29.0882979,6.93723404 29.4095745,6.67765957 29.7361702,6.42340426 C29.7797872,6.3893617 29.8234043,6.35531915 29.8670213,6.3212766 C30.1851064,6.07659574 30.5095745,5.83617021 30.837234,5.60319149 C30.8861702,5.56808511 30.9361702,5.53297872 30.9861702,5.49787234 C31.3191489,5.26382979 31.656383,5.03510638 32,4.81382979 C32.037234,4.79042553 32.0744681,4.76702128 32.1106383,4.74361702 C32.4712766,4.51382979 32.8361702,4.2893617 33.2074468,4.07340426 C34.2106383,3.47978723 35.2553191,2.94787234 36.3989362,2.44787234 C36.4319149,2.43297872 36.4648936,2.41702128 36.4968085,2.39893617 C36.7797872,2.23829787 37.1,2.17340426 37.4159574,2.21276596 C37.4244681,2.21382979 37.4329787,2.21595745 37.4404255,2.21808511 C37.4946809,2.22553191 37.55,2.23510638 37.6031915,2.24893617 C37.6361702,2.25744681 37.6691489,2.27021277 37.7010638,2.28085106 C37.7914894,2.31170213 37.8819149,2.34787234 37.9691489,2.39787234 C38.0010638,2.41595745 38.0351064,2.43191489 38.0680851,2.44680851 C39.2138298,2.94787234 40.2574468,3.4787234 41.2638298,4.07659574 C41.6287234,4.28829787 41.9861702,4.50851064 42.3393617,4.73404255 C42.3829787,4.76170213 42.4265957,4.78829787 42.4691489,4.81595745 C42.8053191,5.03297872 43.1351064,5.25531915 43.4617021,5.48404255 C43.5170213,5.52234043 43.5723404,5.5606383 43.6255319,5.6 C43.9478723,5.82765957 44.2648936,6.06170213 44.5755319,6.30212766 C44.6255319,6.3393617 44.6734043,6.37765957 44.7223404,6.41595745 C45.0414894,6.66489362 45.356383,6.91808511 45.6648936,7.1787234 C45.687234,7.19893617 45.7095745,7.21808511 45.7329787,7.23829787 C46.0404255,7.50106383 46.3425532,7.76914894 46.6404255,8.04255319 C46.6638298,8.06382979 46.6882979,8.08510638 46.7106383,8.10638298 C47.0053191,8.38085106 47.2946809,8.66170213 47.5776596,8.94680851 C47.6223404,8.99148936 47.6670213,9.03617021 47.7117021,9.08085106 C47.9861702,9.3606383 48.2553191,9.64574468 48.5191489,9.93617021 C48.5648936,9.98617021 48.6106383,10.037234 48.656383,10.0882979 C48.9212766,10.3829787 49.1808511,10.6829787 49.4351064,10.9893617 C49.4457447,11.0031915 49.4574468,11.0159574 49.4680851,11.0297872 C45.7382979,12.5159574 41.5085106,13.2968085 37.1446809,13.2968085 C32.8382979,13.2968085 28.6542553,12.5329787 24.9553191,11.0808511 C24.9648936,11.0702128 24.9734043,11.0585106 24.9840426,11.0468085 Z M16.3425532,34.45 C17.1351064,25.7531915 19.587234,18.487234 23.6244681,12.8276596 C27.7053191,14.5223404 32.3595745,15.4159574 37.1457447,15.4159574 C41.9904255,15.4159574 46.6914894,14.5042553 50.8021277,12.7723404 C54.8617021,18.437234 57.3287234,25.7212766 58.1255319,34.4489362 C59.0968085,45.2 57.3117021,58.1106383 53.35,68.9829787 C52.512766,71.2585106 51.7180851,73.1468085 50.9212766,74.7595745 C50.6170213,75.3819149 50.0553191,75.7670213 49.4553191,75.7670213 L49.4042553,75.7670213 C49.3914894,75.7659574 49.3808511,75.7659574 49.3680851,75.7659574 L25.1159574,75.7659574 C25.1042553,75.7659574 25.0914894,75.7659574 25.0797872,75.7670213 L25.0297872,75.7670213 C24.4191489,75.7670213 23.8595745,75.387234 23.5617021,74.7574468 C22.7191489,73.05 21.9021277,71.1085106 21.1351064,68.987234 C17.1638298,58.0914894 15.3723404,45.1797872 16.3425532,34.45 Z M72.4617021,66.5010638 C72.456383,66.4946809 72.45,66.4882979 72.443617,66.4819149 L62.7861702,56.8117021 C62.5117021,56.5361702 62.1085106,56.4351064 61.7361702,56.5446809 C61.3638298,56.6553191 61.0819149,56.9617021 61.0021277,57.3414894 C60.0393617,61.9053191 58.7297872,66.2691489 57.1138298,70.3095745 C56.2095745,72.5542553 55.3212766,74.4744681 54.3968085,76.1787234 C54.3904255,76.1893617 54.3851064,76.2 54.3797872,76.2095745 C54.2531915,76.4638298 54.0797872,76.7212766 53.8648936,76.9744681 C53.6255319,77.2574468 53.5510638,77.6446809 53.6680851,77.9957447 C53.7861702,78.3468085 54.0787234,78.6106383 54.4404255,78.6914894 L65.5957447,81.2031915 L65.5957447,94.3797872 C65.5957447,96.5755319 67.3925532,98.3638298 69.6021277,98.3638298 C71.8095745,98.3638298 73.606383,96.5755319 73.606383,94.3797872 L73.606383,69.2914894 C73.6053191,68.2382979 73.2212766,67.2989362 72.4617021,66.5010638 Z M71.4882979,94.3808511 C71.4882979,95.4095745 70.6414894,96.2468085 69.6021277,96.2468085 C68.5606383,96.2468085 67.7148936,95.4095745 67.7148936,94.3808511 L67.7148936,80.356383 C67.7148936,79.8617021 67.3712766,79.4329787 66.8882979,79.3234043 L56.3829787,76.9585106 C57.3021277,75.2414894 58.1851064,73.3212766 59.0797872,71.0978723 C60.5170213,67.506383 61.7159574,63.6712766 62.6521277,59.6734043 L70.9361702,67.9670213 C71.312766,68.3670213 71.4893617,68.7882979 71.4893617,69.2914894 L71.4893617,94.3808511 L71.4882979,94.3808511 Z"></path>
            </g>
        </g>
    </g>
</svg>